<svg width="82" height="82" viewBox="0 0 82 82" fill="none" xmlns="http://www.w3.org/2000/svg">
<rect x="1" y="1" width="80" height="80" rx="40" fill="#324841" stroke="#ACE1FF"/>
<path d="M4.97363 23.5641L4.7375 58.4359" stroke="#ACE1FF"/>
<path d="M8.71094 17.4103L8.71094 64.5898" stroke="#ACE1FF"/>
<path d="M12.5664 12.7949V69.2052" stroke="#ACE1FF"/>
<path d="M16.4209 9.71802V72.7949" stroke="#ACE1FF"/>
<path d="M20.2773 7.15381V75.3589" stroke="#ACE1FF"/>
<path d="M24.1328 5.10254L24.1328 77.4102" stroke="#ACE1FF"/>
<path d="M27.9873 3.05127V78.9487" stroke="#ACE1FF"/>
<path d="M31.8438 2.02563L31.8438 79.9743" stroke="#ACE1FF"/>
<path d="M35.6982 1V81" stroke="#ACE1FF"/>
<path d="M39.5537 1V81" stroke="#ACE1FF"/>
<path d="M43.4102 1V81" stroke="#ACE1FF"/>
<path d="M47.2646 1V81" stroke="#ACE1FF"/>
<path d="M51.1211 2.53857V79.4617" stroke="#ACE1FF"/>
<path d="M54.9766 3.56421V78.436" stroke="#ACE1FF"/>
<path d="M58.8311 5.10254V76.8974" stroke="#ACE1FF"/>
<path d="M62.6875 7.15381L62.6875 74.3333" stroke="#ACE1FF"/>
<path d="M66.542 10.2307L66.542 71.7692" stroke="#ACE1FF"/>
<path d="M70.3975 13.8206L70.3975 68.1795" stroke="#ACE1FF"/>
<path d="M74.2539 18.9487L74.2539 63.5641" stroke="#ACE1FF"/>
<path d="M78.1084 25.6154L78.1084 55.8718" stroke="#ACE1FF"/>
</svg>
