<svg width="660" height="300" viewBox="0 0 660 300" fill="none" xmlns="http://www.w3.org/2000/svg">
<g clip-path="url(#clip0_763_1295)">
<rect x="0.5" y="0.5" width="330" height="300" rx="79.5" stroke="#267642"/>
<rect x="16.4521" y="16.447" width="298.096" height="268.106" rx="79.5" stroke="#267642"/>
<rect x="32.4033" y="30.4007" width="266.193" height="239.401" rx="79.5" stroke="#267642"/>
<rect x="48.3555" y="44.3543" width="234.289" height="210.697" rx="79.5" stroke="#267642"/>
<rect x="64.3071" y="58.308" width="202.386" height="181.992" rx="79.5" stroke="#267642"/>
<rect x="80.2588" y="72.2616" width="170.482" height="153.287" rx="76.6437" stroke="#267642"/>
<rect x="96.2109" y="86.2152" width="138.578" height="124.583" rx="62.2914" stroke="#267642"/>
<rect x="112.163" y="100.169" width="106.675" height="95.8781" rx="47.9391" stroke="#267642"/>
<rect x="128.115" y="114.122" width="74.7711" height="67.1735" rx="33.5868" stroke="#267642"/>
<rect x="144.066" y="128.076" width="42.8675" height="38.4689" rx="19.2344" stroke="#267642"/>
<rect x="160.019" y="142.03" width="10.9639" height="9.76424" rx="4.88212" stroke="#267642"/>
<rect x="330.5" y="0.5" width="330" height="300" rx="79.5" stroke="#267642"/>
<rect x="346.453" y="16.447" width="298.096" height="268.106" rx="79.5" stroke="#267642"/>
<rect x="362.403" y="30.4007" width="266.193" height="239.401" rx="79.5" stroke="#267642"/>
<rect x="378.355" y="44.3543" width="234.289" height="210.697" rx="79.5" stroke="#267642"/>
<rect x="394.308" y="58.308" width="202.386" height="181.992" rx="79.5" stroke="#267642"/>
<rect x="410.258" y="72.2616" width="170.482" height="153.287" rx="76.6437" stroke="#267642"/>
<rect x="426.211" y="86.2152" width="138.578" height="124.583" rx="62.2914" stroke="#267642"/>
<rect x="442.163" y="100.169" width="106.675" height="95.8781" rx="47.9391" stroke="#267642"/>
<rect x="458.115" y="114.122" width="74.7711" height="67.1735" rx="33.5868" stroke="#267642"/>
<rect x="474.066" y="128.076" width="42.8675" height="38.4689" rx="19.2344" stroke="#267642"/>
<rect x="490.019" y="142.03" width="10.9639" height="9.76424" rx="4.88212" stroke="#267642"/>
</g>
<defs>
<clipPath id="clip0_763_1295">
<rect width="660" height="300" fill="white"/>
</clipPath>
</defs>
</svg>
