<svg width="486" height="327" viewBox="0 0 486 327" fill="none" xmlns="http://www.w3.org/2000/svg">
<g clip-path="url(#clip0_1537_1355)">
<rect width="486" height="327" fill="#324841"/>
<path d="M463 337.5L-18.5 21.5V337.5H463Z" fill="url(#paint0_linear_1537_1355)"/>
<circle cx="130" cy="124" r="61" fill="#ACE1FF"/>
<circle cx="130.401" cy="105.941" r="22.875" fill="#1D2B2A"/>
<path d="M81.9727 161.612C92.6969 146.158 110.568 136.039 130.803 136.039C150.56 136.039 168.064 145.685 178.861 160.524C167.736 175.384 149.991 185 130 185C110.501 185 93.1397 175.851 81.9727 161.612Z" fill="#1D2B2A"/>
<path d="M313.199 53.8353V54.8353H314.199H406.073V145.709H270.31V44H313.199V53.8353Z" fill="#1D2B2A" stroke="#FDF3E7" stroke-width="2"/>
<path d="M270.159 145.71L258.105 72.6367H393.842L405.895 145.71H270.159Z" stroke="#FDF3E7" stroke-width="2"/>
<path d="M313.272 188.126V189.126H314.272H406.146V280.001H270.383V178.291H313.272V188.126Z" fill="#1D2B2A" stroke="#FDF3E7" stroke-width="2"/>
<path d="M270.232 280.001L258.178 206.928H393.915L405.968 280.001H270.232Z" stroke="#FDF3E7" stroke-width="2"/>
<circle cx="403.5" cy="78.5" r="45.5" fill="#FDC67B"/>
<rect x="390" y="69.7773" width="28" height="27.2222" rx="5.44444" fill="#1D2B2A"/>
<path d="M405.556 84.2316C406.929 83.6315 407.889 82.2613 407.889 80.6662C407.889 78.5182 406.148 76.7773 404 76.7773C401.852 76.7773 400.111 78.5182 400.111 80.6662C400.111 82.2613 401.071 83.6315 402.445 84.2316V89.2218H405.556V84.2316Z" fill="#FDC67B"/>
<path d="M407.111 58.8889H400.889C400.03 58.8889 399.333 59.5853 399.333 60.4444V70.5556H395.444V60.4444C395.444 57.4376 397.882 55 400.889 55H407.111C410.118 55 412.555 57.4376 412.555 60.4444V70.5556H408.667V60.4444C408.667 59.5853 407.97 58.8889 407.111 58.8889Z" fill="#1D2B2A"/>
<path d="M132 239H131V240H132V239ZM336.5 239L326.5 233.226V244.774L336.5 239ZM131 159V161.857H133V159H131ZM131 167.571V173.286H133V167.571H131ZM131 179V184.714H133V179H131ZM131 190.429V196.143H133V190.429H131ZM131 201.857V207.571H133V201.857H131ZM131 213.286V219H133V213.286H131ZM131 224.714V230.429H133V224.714H131ZM131 236.143V239H133V236.143H131ZM132 240H135.007V238H132V240ZM141.022 240H147.037V238H141.022V240ZM153.051 240H159.066V238H153.051V240ZM165.081 240H171.096V238H165.081V240ZM177.11 240H183.125V238H177.11V240ZM189.14 240H195.154V238H189.14V240ZM201.169 240H207.184V238H201.169V240ZM213.199 240H219.213V238H213.199V240ZM225.228 240H231.243V238H225.228V240ZM237.257 240H243.272V238H237.257V240ZM249.287 240H255.302V238H249.287V240ZM261.316 240H267.331V238H261.316V240ZM273.346 240H279.36V238H273.346V240ZM285.375 240H291.39V238H285.375V240ZM297.404 240H303.419V238H297.404V240ZM309.434 240H315.449V238H309.434V240ZM321.463 240H327.478V238H321.463V240Z" fill="#00FF47"/>
</g>
<defs>
<linearGradient id="paint0_linear_1537_1355" x1="222.25" y1="21.5" x2="222.25" y2="337.5" gradientUnits="userSpaceOnUse">
<stop stop-color="#00FF47"/>
<stop offset="1" stop-color="#00FF47" stop-opacity="0"/>
</linearGradient>
<clipPath id="clip0_1537_1355">
<rect width="486" height="327" fill="white"/>
</clipPath>
</defs>
</svg>
