<svg width="486" height="327" viewBox="0 0 486 327" fill="none" xmlns="http://www.w3.org/2000/svg">
<g clip-path="url(#clip0_1537_1375)">
<rect width="486" height="327" fill="#1D2B2A"/>
<path d="M44 -8C44 8.56854 30.5685 22 14 22H7.5V-38H14C30.5685 -38 44 -24.5685 44 -8Z" stroke="#324841" stroke-width="2"/>
<path d="M26 16H33M33 8H40M36.5 0H43.5" stroke="#324841" stroke-width="2"/>
<circle cx="7" cy="-8" r="30" fill="#324841" stroke="#324841" stroke-width="2"/>
<circle cx="7" cy="-8" r="21" fill="#324841" stroke="#1D2B2A" stroke-width="2"/>
<path d="M137 -8C137 8.56854 123.569 22 107 22H100.5V-38H107C123.569 -38 137 -24.5685 137 -8Z" stroke="#324841" stroke-width="2"/>
<path d="M119 16H126M126 8H133M129.5 0H136.5" stroke="#324841" stroke-width="2"/>
<circle cx="100" cy="-8" r="30" fill="#324841" stroke="#324841" stroke-width="2"/>
<circle cx="100" cy="-8" r="21" fill="#324841" stroke="#1D2B2A" stroke-width="2"/>
<path d="M230 -8C230 8.56854 216.569 22 200 22H193.5V-38H200C216.569 -38 230 -24.5685 230 -8Z" stroke="#324841" stroke-width="2"/>
<path d="M212 16H219M219 8H226M222.5 0H229.5" stroke="#324841" stroke-width="2"/>
<circle cx="193" cy="-8" r="30" fill="#324841" stroke="#324841" stroke-width="2"/>
<circle cx="193" cy="-8" r="21" fill="#324841" stroke="#1D2B2A" stroke-width="2"/>
<path d="M323 -8C323 8.56854 309.569 22 293 22H286.5V-38H293C309.569 -38 323 -24.5685 323 -8Z" stroke="#324841" stroke-width="2"/>
<path d="M305 16H312M312 8H319M315.5 0H322.5" stroke="#324841" stroke-width="2"/>
<circle cx="286" cy="-8" r="30" fill="#324841" stroke="#324841" stroke-width="2"/>
<circle cx="286" cy="-8" r="21" fill="#324841" stroke="#1D2B2A" stroke-width="2"/>
<path d="M416 -8C416 8.56854 402.569 22 386 22H379.5V-38H386C402.569 -38 416 -24.5685 416 -8Z" stroke="#324841" stroke-width="2"/>
<path d="M398 16H405M405 8H412M408.5 0H415.5" stroke="#324841" stroke-width="2"/>
<circle cx="379" cy="-8" r="30" fill="#324841" stroke="#324841" stroke-width="2"/>
<circle cx="379" cy="-8" r="21" fill="#324841" stroke="#1D2B2A" stroke-width="2"/>
<path d="M509 -8C509 8.56854 495.569 22 479 22H472.5V-38H479C495.569 -38 509 -24.5685 509 -8Z" stroke="#324841" stroke-width="2"/>
<circle cx="472" cy="-8" r="30" fill="#324841" stroke="#324841" stroke-width="2"/>
<circle cx="472" cy="-8" r="21" fill="#324841" stroke="#1D2B2A" stroke-width="2"/>
<path d="M44 78C44 94.5685 30.5685 108 14 108H7.5V48H14C30.5685 48 44 61.4315 44 78Z" stroke="#324841" stroke-width="2"/>
<path d="M37.5 78H44.5M36.5 70H43.5M33 62H40" stroke="#324841" stroke-width="2"/>
<path d="M37.5 78H44.5M25.5 54H32.5" stroke="#324841" stroke-width="2"/>
<path d="M26 102H33M33 94H40M36.5 86H43.5" stroke="#324841" stroke-width="2"/>
<circle cx="7" cy="78" r="30" fill="#324841" stroke="#324841" stroke-width="2"/>
<circle cx="7" cy="78" r="21" fill="#324841" stroke="#1D2B2A" stroke-width="2"/>
<path d="M137 78C137 94.5685 123.569 108 107 108H100.5V48H107C123.569 48 137 61.4315 137 78Z" stroke="#324841" stroke-width="2"/>
<path d="M130.5 78H137.5M129.5 70H136.5M126 62H133" stroke="#324841" stroke-width="2"/>
<path d="M130.5 78H137.5M118.5 54H125.5" stroke="#324841" stroke-width="2"/>
<path d="M119 102H126M126 94H133M129.5 86H136.5" stroke="#324841" stroke-width="2"/>
<circle cx="100" cy="78" r="30" fill="#324841" stroke="#324841" stroke-width="2"/>
<circle cx="100" cy="78" r="21" fill="#324841" stroke="#1D2B2A" stroke-width="2"/>
<path d="M230 78C230 94.5685 216.569 108 200 108H193.5V48H200C216.569 48 230 61.4315 230 78Z" stroke="#324841" stroke-width="2"/>
<path d="M223.5 78H230.5M222.5 70H229.5M219 62H226" stroke="#324841" stroke-width="2"/>
<path d="M223.5 78H230.5M211.5 54H218.5" stroke="#324841" stroke-width="2"/>
<path d="M212 102H219M219 94H226M222.5 86H229.5" stroke="#324841" stroke-width="2"/>
<circle cx="193" cy="78" r="30" fill="#324841" stroke="#324841" stroke-width="2"/>
<circle cx="193" cy="78" r="21" fill="#324841" stroke="#1D2B2A" stroke-width="2"/>
<path d="M323 78C323 94.5685 309.569 108 293 108H286.5V48H293C309.569 48 323 61.4315 323 78Z" stroke="#324841" stroke-width="2"/>
<path d="M316.5 78H323.5M315.5 70H322.5M312 62H319" stroke="#324841" stroke-width="2"/>
<path d="M316.5 78H323.5M304.5 54H311.5" stroke="#324841" stroke-width="2"/>
<path d="M305 102H312M312 94H319M315.5 86H322.5" stroke="#324841" stroke-width="2"/>
<circle cx="286" cy="78" r="30" fill="#324841" stroke="#324841" stroke-width="2"/>
<circle cx="286" cy="78" r="21" fill="#324841" stroke="#1D2B2A" stroke-width="2"/>
<path d="M509 78C509 94.5685 495.569 108 479 108H472.5V48H479C495.569 48 509 61.4315 509 78Z" stroke="#324841" stroke-width="2"/>
<circle cx="472" cy="78" r="30" fill="#324841" stroke="#324841" stroke-width="2"/>
<circle cx="472" cy="78" r="21" fill="#324841" stroke="#1D2B2A" stroke-width="2"/>
<path d="M44 164C44 180.569 30.5685 194 14 194H7.5V134H14C30.5685 134 44 147.431 44 164Z" stroke="#324841" stroke-width="2"/>
<path d="M37.5 164H44.5M36.5 156H43.5M33 148H40" stroke="#324841" stroke-width="2"/>
<path d="M37.5 164H44.5M25.5 140H32.5" stroke="#324841" stroke-width="2"/>
<path d="M26 188H33M33 180H40M36.5 172H43.5" stroke="#324841" stroke-width="2"/>
<circle cx="7" cy="164" r="30" fill="#324841" stroke="#324841" stroke-width="2"/>
<circle cx="7" cy="164" r="21" fill="#324841" stroke="#1D2B2A" stroke-width="2"/>
<path d="M137 164C137 180.569 123.569 194 107 194H100.5V134H107C123.569 134 137 147.431 137 164Z" stroke="#324841" stroke-width="2"/>
<path d="M130.5 164H137.5M129.5 156H136.5M126 148H133" stroke="#324841" stroke-width="2"/>
<path d="M130.5 164H137.5M118.5 140H125.5" stroke="#324841" stroke-width="2"/>
<path d="M119 188H126M126 180H133M129.5 172H136.5" stroke="#324841" stroke-width="2"/>
<circle cx="100" cy="164" r="30" fill="#324841" stroke="#324841" stroke-width="2"/>
<circle cx="100" cy="164" r="21" fill="#324841" stroke="#1D2B2A" stroke-width="2"/>
<path d="M230 164C230 180.569 216.569 194 200 194H193.5V134H200C216.569 134 230 147.431 230 164Z" stroke="#324841" stroke-width="2"/>
<path d="M223.5 164H230.5M222.5 156H229.5M219 148H226" stroke="#324841" stroke-width="2"/>
<path d="M223.5 164H230.5M211.5 140H218.5" stroke="#324841" stroke-width="2"/>
<path d="M212 188H219M219 180H226M222.5 172H229.5" stroke="#324841" stroke-width="2"/>
<circle cx="193" cy="164" r="30" fill="#324841" stroke="#324841" stroke-width="2"/>
<circle cx="193" cy="164" r="21" fill="#324841" stroke="#1D2B2A" stroke-width="2"/>
<path d="M323 164C323 180.569 309.569 194 293 194H286.5V134H293C309.569 134 323 147.431 323 164Z" stroke="#324841" stroke-width="2"/>
<path d="M316.5 164H323.5M315.5 156H322.5M312 148H319" stroke="#324841" stroke-width="2"/>
<path d="M316.5 164H323.5M304.5 140H311.5" stroke="#324841" stroke-width="2"/>
<path d="M305 188H312M312 180H319M315.5 172H322.5" stroke="#324841" stroke-width="2"/>
<circle cx="286" cy="164" r="30" fill="#324841" stroke="#324841" stroke-width="2"/>
<circle cx="286" cy="164" r="21" fill="#324841" stroke="#1D2B2A" stroke-width="2"/>
<path d="M416 164C416 180.569 402.569 194 386 194H379.5V134H386C402.569 134 416 147.431 416 164Z" stroke="#324841" stroke-width="2"/>
<path d="M409.5 164H416.5M408.5 156H415.5M405 148H412" stroke="#324841" stroke-width="2"/>
<path d="M409.5 164H416.5M397.5 140H404.5" stroke="#324841" stroke-width="2"/>
<path d="M398 188H405M405 180H412M408.5 172H415.5" stroke="#324841" stroke-width="2"/>
<circle cx="379" cy="164" r="30" fill="#324841" stroke="#324841" stroke-width="2"/>
<circle cx="379" cy="164" r="21" fill="#324841" stroke="#1D2B2A" stroke-width="2"/>
<path d="M509 164C509 180.569 495.569 194 479 194H472.5V134H479C495.569 134 509 147.431 509 164Z" stroke="#324841" stroke-width="2"/>
<circle cx="472" cy="164" r="30" fill="#324841" stroke="#324841" stroke-width="2"/>
<circle cx="472" cy="164" r="21" fill="#324841" stroke="#1D2B2A" stroke-width="2"/>
<path d="M44 250C44 266.569 30.5685 280 14 280H7.5V220H14C30.5685 220 44 233.431 44 250Z" stroke="#324841" stroke-width="2"/>
<path d="M37.5 250H44.5M36.5 242H43.5M33 234H40" stroke="#324841" stroke-width="2"/>
<path d="M37.5 250H44.5M25.5 226H32.5" stroke="#324841" stroke-width="2"/>
<path d="M26 274H33M33 266H40M36.5 258H43.5" stroke="#324841" stroke-width="2"/>
<circle cx="7" cy="250" r="30" fill="#324841" stroke="#324841" stroke-width="2"/>
<circle cx="7" cy="250" r="21" fill="#324841" stroke="#1D2B2A" stroke-width="2"/>
<path d="M137 250C137 266.569 123.569 280 107 280H100.5V220H107C123.569 220 137 233.431 137 250Z" stroke="#324841" stroke-width="2"/>
<path d="M130.5 250H137.5M129.5 242H136.5M126 234H133" stroke="#324841" stroke-width="2"/>
<path d="M130.5 250H137.5M118.5 226H125.5" stroke="#324841" stroke-width="2"/>
<path d="M119 274H126M126 266H133M129.5 258H136.5" stroke="#324841" stroke-width="2"/>
<circle cx="100" cy="250" r="30" fill="#324841" stroke="#324841" stroke-width="2"/>
<circle cx="100" cy="250" r="21" fill="#324841" stroke="#1D2B2A" stroke-width="2"/>
<path d="M230 250C230 266.569 216.569 280 200 280H193.5V220H200C216.569 220 230 233.431 230 250Z" stroke="#324841" stroke-width="2"/>
<path d="M223.5 250H230.5M222.5 242H229.5M219 234H226" stroke="#324841" stroke-width="2"/>
<path d="M223.5 250H230.5M211.5 226H218.5" stroke="#324841" stroke-width="2"/>
<path d="M212 274H219M219 266H226M222.5 258H229.5" stroke="#324841" stroke-width="2"/>
<circle cx="193" cy="250" r="30" fill="#324841" stroke="#324841" stroke-width="2"/>
<circle cx="193" cy="250" r="21" fill="#324841" stroke="#1D2B2A" stroke-width="2"/>
<path d="M323 250C323 266.569 309.569 280 293 280H286.5V220H293C309.569 220 323 233.431 323 250Z" stroke="#324841" stroke-width="2"/>
<path d="M316.5 250H323.5M315.5 242H322.5M312 234H319" stroke="#324841" stroke-width="2"/>
<path d="M316.5 250H323.5M304.5 226H311.5" stroke="#324841" stroke-width="2"/>
<path d="M305 274H312M312 266H319M315.5 258H322.5" stroke="#324841" stroke-width="2"/>
<circle cx="286" cy="250" r="30" fill="#324841" stroke="#324841" stroke-width="2"/>
<circle cx="286" cy="250" r="21" fill="#324841" stroke="#1D2B2A" stroke-width="2"/>
<path d="M416 250C416 266.569 402.569 280 386 280H379.5V220H386C402.569 220 416 233.431 416 250Z" stroke="#324841" stroke-width="2"/>
<path d="M409.5 250H416.5M408.5 242H415.5M405 234H412" stroke="#324841" stroke-width="2"/>
<path d="M409.5 250H416.5M397.5 226H404.5" stroke="#324841" stroke-width="2"/>
<path d="M398 274H405M405 266H412M408.5 258H415.5" stroke="#324841" stroke-width="2"/>
<circle cx="379" cy="250" r="30" fill="#324841" stroke="#324841" stroke-width="2"/>
<circle cx="379" cy="250" r="21" fill="#324841" stroke="#1D2B2A" stroke-width="2"/>
<path d="M509 250C509 266.569 495.569 280 479 280H472.5V220H479C495.569 220 509 233.431 509 250Z" stroke="#324841" stroke-width="2"/>
<circle cx="472" cy="250" r="30" fill="#324841" stroke="#324841" stroke-width="2"/>
<circle cx="472" cy="250" r="21" fill="#324841" stroke="#1D2B2A" stroke-width="2"/>
<path d="M44 336C44 352.569 30.5685 366 14 366H7.5V306H14C30.5685 306 44 319.431 44 336Z" stroke="#324841" stroke-width="2"/>
<path d="M37.5 336H44.5M36.5 328H43.5M33 320H40" stroke="#324841" stroke-width="2"/>
<path d="M37.5 336H44.5M25.5 312H32.5" stroke="#324841" stroke-width="2"/>
<circle cx="7" cy="336" r="30" fill="#324841" stroke="#324841" stroke-width="2"/>
<circle cx="7" cy="336" r="21" fill="#324841" stroke="#1D2B2A" stroke-width="2"/>
<path d="M137 336C137 352.569 123.569 366 107 366H100.5V306H107C123.569 306 137 319.431 137 336Z" stroke="#324841" stroke-width="2"/>
<path d="M130.5 336H137.5M129.5 328H136.5M126 320H133" stroke="#324841" stroke-width="2"/>
<path d="M130.5 336H137.5M118.5 312H125.5" stroke="#324841" stroke-width="2"/>
<circle cx="100" cy="336" r="30" fill="#324841" stroke="#324841" stroke-width="2"/>
<circle cx="100" cy="336" r="21" fill="#324841" stroke="#1D2B2A" stroke-width="2"/>
<path d="M230 336C230 352.569 216.569 366 200 366H193.5V306H200C216.569 306 230 319.431 230 336Z" stroke="#324841" stroke-width="2"/>
<path d="M223.5 336H230.5M222.5 328H229.5M219 320H226" stroke="#324841" stroke-width="2"/>
<path d="M223.5 336H230.5M211.5 312H218.5" stroke="#324841" stroke-width="2"/>
<circle cx="193" cy="336" r="30" fill="#324841" stroke="#324841" stroke-width="2"/>
<circle cx="193" cy="336" r="21" fill="#324841" stroke="#1D2B2A" stroke-width="2"/>
<path d="M323 336C323 352.569 309.569 366 293 366H286.5V306H293C309.569 306 323 319.431 323 336Z" stroke="#324841" stroke-width="2"/>
<path d="M316.5 336H323.5M315.5 328H322.5M312 320H319" stroke="#324841" stroke-width="2"/>
<path d="M316.5 336H323.5M304.5 312H311.5" stroke="#324841" stroke-width="2"/>
<circle cx="286" cy="336" r="30" fill="#324841" stroke="#324841" stroke-width="2"/>
<circle cx="286" cy="336" r="21" fill="#324841" stroke="#1D2B2A" stroke-width="2"/>
<path d="M416 336C416 352.569 402.569 366 386 366H379.5V306H386C402.569 306 416 319.431 416 336Z" stroke="#324841" stroke-width="2"/>
<path d="M409.5 336H416.5M408.5 328H415.5M405 320H412" stroke="#324841" stroke-width="2"/>
<path d="M409.5 336H416.5M397.5 312H404.5" stroke="#324841" stroke-width="2"/>
<circle cx="379" cy="336" r="30" fill="#324841" stroke="#324841" stroke-width="2"/>
<circle cx="379" cy="336" r="21" fill="#324841" stroke="#1D2B2A" stroke-width="2"/>
<path d="M509 336C509 352.569 495.569 366 479 366H472.5V306H479C495.569 306 509 319.431 509 336Z" stroke="#324841" stroke-width="2"/>
<circle cx="472" cy="336" r="30" fill="#324841" stroke="#324841" stroke-width="2"/>
<circle cx="472" cy="336" r="21" fill="#324841" stroke="#1D2B2A" stroke-width="2"/>
<rect x="358" y="53" width="49" height="49" stroke="#00FF47" stroke-width="2"/>
<path d="M-20 160.5L385 75.5L308.5 348H-20V160.5Z" fill="url(#paint0_linear_1537_1375)"/>
<circle cx="254" cy="231" r="61" fill="#1D2B2A"/>
<circle cx="254.5" cy="217.5" r="15.5" fill="#ACE1FF"/>
<path d="M221 255.759C228.416 245.027 240.774 238 254.767 238C268.429 238 280.533 244.698 288 255.003C280.307 265.322 268.036 272 254.212 272C240.728 272 228.722 265.647 221 255.759Z" fill="#ACE1FF"/>
<circle cx="116" cy="229" r="61" fill="#1D2B2A"/>
<circle cx="116.5" cy="215.5" r="15.5" fill="#FDC67B"/>
<path d="M83 253.759C90.416 243.027 102.774 236 116.767 236C130.429 236 142.533 242.698 150 253.003C142.307 263.322 130.036 270 116.212 270C102.728 270 90.7222 263.647 83 253.759Z" fill="#FDC67B"/>
<circle cx="-22" cy="229" r="61" fill="#1D2B2A"/>
<path d="M-55 253.759C-47.584 243.027 -35.2259 236 -21.2331 236C-7.57082 236 4.5331 242.698 12 253.003C4.30653 263.322 -7.96433 270 -21.7881 270C-35.272 270 -47.2778 263.647 -55 253.759Z" fill="#ACE1FF"/>
</g>
<defs>
<linearGradient id="paint0_linear_1537_1375" x1="182.5" y1="75.5" x2="182.5" y2="348" gradientUnits="userSpaceOnUse">
<stop stop-color="#00FF47"/>
<stop offset="1" stop-color="#00FF47" stop-opacity="0"/>
</linearGradient>
<clipPath id="clip0_1537_1375">
<rect width="486" height="327" fill="white"/>
</clipPath>
</defs>
</svg>
