<svg width="486" height="327" viewBox="0 0 486 327" fill="none" xmlns="http://www.w3.org/2000/svg">
<g clip-path="url(#clip0_1537_1604)">
<rect width="486" height="327" fill="#1D2B2A"/>
<path d="M-91 385L519 26V385H-91Z" fill="url(#paint0_linear_1537_1604)"/>
<path d="M186 201L138.5 228.5L174.5 248.5L222 221.5L186 201Z" fill="#FDC67B" stroke="black" stroke-opacity="0.2"/>
<path d="M58.5 216V131L178 61.5V146.5L58.5 216Z" fill="#324841"/>
<path d="M182 52L54 127V225.5L140 276L268 201L182 150.5V52Z" stroke="#00FF47" stroke-width="2"/>
<path d="M298 219.915V97L371 141.089V262L298 219.915Z" stroke="#FDC67B" stroke-width="2"/>
<path d="M317 107.784V79L392 122.51V243L371.911 231.62" stroke="#FDC67B" stroke-width="2"/>
<path d="M338 91.6082V63L412 106.245V226L392.179 214.69" stroke="#FDC67B" stroke-width="2"/>
<path d="M357 73.6082V45L432 88.2449V208L411.911 196.69" stroke="#FDC67B" stroke-width="2"/>
<path d="M196 128V127H195V128H196ZM318.5 128L308.5 122.226V133.774L318.5 128ZM197 218V215.188H195V218H197ZM197 209.562V203.938H195V209.562H197ZM197 198.312V192.688H195V198.312H197ZM197 187.062V181.438H195V187.062H197ZM197 175.812V170.188H195V175.812H197ZM197 164.562V158.938H195V164.562H197ZM197 153.312V147.688H195V153.312H197ZM197 142.062V136.438H195V142.062H197ZM197 130.812V128H195V130.812H197ZM196 129H199.062V127H196V129ZM205.188 129H211.312V127H205.188V129ZM217.438 129H223.562V127H217.438V129ZM229.688 129H235.812V127H229.688V129ZM241.938 129H248.062V127H241.938V129ZM254.188 129H260.312V127H254.188V129ZM266.438 129H272.562V127H266.438V129ZM278.688 129H284.812V127H278.688V129ZM290.938 129H297.062V127H290.938V129ZM303.188 129H309.312V127H303.188V129Z" fill="#00FF47"/>
</g>
<defs>
<linearGradient id="paint0_linear_1537_1604" x1="245.777" y1="26" x2="245.777" y2="385" gradientUnits="userSpaceOnUse">
<stop stop-color="#00FF47"/>
<stop offset="1" stop-color="#00FF47" stop-opacity="0"/>
</linearGradient>
<clipPath id="clip0_1537_1604">
<rect width="486" height="327" fill="white"/>
</clipPath>
</defs>
</svg>
